<svg width="24" height="24" viewBox="0 0 24 24" fill="none" xmlns="http://www.w3.org/2000/svg">
<g id="Crown">
<g id="Crown_2">
<path id="Vector" d="M4.2308 18.3767C4.25418 18.4752 4.29726 18.5681 4.35746 18.6496C4.41765 18.7311 4.49371 18.7996 4.58107 18.8509C4.66842 18.9023 4.76525 18.9354 4.86574 18.9483C4.96624 18.9613 5.06831 18.9538 5.16582 18.9262C9.63668 17.6918 14.3584 17.6914 18.8295 18.925C18.927 18.9525 19.029 18.96 19.1295 18.947C19.2299 18.9341 19.3267 18.9009 19.4141 18.8496C19.5014 18.7983 19.5774 18.7299 19.6376 18.6484C19.6978 18.567 19.7409 18.4742 19.7643 18.3756L22.1539 8.22092C22.1859 8.08498 22.1793 7.9428 22.1348 7.81041C22.0904 7.67802 22.0098 7.56066 21.9023 7.47157C21.7948 7.38247 21.6645 7.32518 21.5261 7.30613C21.3878 7.28708 21.2468 7.30704 21.1192 7.36376L16.377 9.47142C16.2058 9.54753 16.0122 9.55677 15.8345 9.49734C15.6568 9.43791 15.5078 9.3141 15.4168 9.1503L12.6556 4.1802C12.5907 4.06328 12.4956 3.96586 12.3803 3.89803C12.2651 3.8302 12.1337 3.79443 12 3.79443C11.8662 3.79443 11.7349 3.8302 11.6196 3.89803C11.5044 3.96586 11.4093 4.06328 11.3444 4.1802L8.58321 9.1503C8.49221 9.3141 8.34318 9.43791 8.16547 9.49734C7.98775 9.55677 7.79423 9.54753 7.62299 9.47142L2.88004 7.36345C2.75245 7.30674 2.61156 7.28677 2.47323 7.3058C2.3349 7.32483 2.20464 7.3821 2.09709 7.47115C1.98955 7.56021 1.909 7.67751 1.86452 7.80987C1.82003 7.94222 1.81338 8.08437 1.84531 8.2203L4.2308 18.3767Z" stroke="white" stroke-width="2" stroke-linecap="round" stroke-linejoin="round"/>
<path id="Vector_2" d="M9 15.1574C10.9945 14.9475 13.0055 14.9475 15 15.1574" stroke="white" stroke-width="2" stroke-linecap="round" stroke-linejoin="round"/>
</g>
</g>
</svg>
