<svg width="24" height="24" viewBox="0 0 24 24" fill="none" xmlns="http://www.w3.org/2000/svg">
<g id="DribbbleLogo">
<g id="DribbbleLogo_2">
<path id="Vector" d="M12 21C16.9706 21 21 16.9706 21 12C21 7.02944 16.9706 3 12 3C7.02944 3 3 7.02944 3 12C3 16.9706 7.02944 21 12 21Z" stroke="white" stroke-width="2" stroke-linecap="round" stroke-linejoin="round"/>
<path id="Vector_2" d="M6.65857 19.2444C7.99357 17.0327 9.87741 15.2036 12.1274 13.9343C14.3774 12.6651 16.9172 11.9987 19.5006 12C20.0065 12 20.5062 12.0247 20.9997 12.074" stroke="white" stroke-width="2" stroke-linecap="round" stroke-linejoin="round"/>
<path id="Vector_3" d="M17.6277 4.97754C16.2224 6.70486 14.4494 8.09691 12.438 9.05228C10.4265 10.0076 8.22731 10.5023 6.00052 10.5001C5.05202 10.5005 4.1056 10.4115 3.17383 10.2341" stroke="white" stroke-width="2" stroke-linecap="round" stroke-linejoin="round"/>
<path id="Vector_4" d="M8.05597 3.9082C10.3115 5.23165 12.1816 7.12202 13.4807 9.39166C14.7798 11.6613 15.4627 14.2313 15.4615 16.8464C15.4624 18.0717 15.3134 19.2925 15.018 20.4817" stroke="white" stroke-width="2" stroke-linecap="round" stroke-linejoin="round"/>
</g>
</g>
</svg>
