<svg width="25" height="24" viewBox="0 0 25 24" fill="none" xmlns="http://www.w3.org/2000/svg">
<g id="Heart">
<g id="Heart_2">
<path id="Vector" d="M12.3333 20.25C12.3333 20.25 2.95825 15 2.95825 8.62501C2.95844 7.49826 3.34886 6.40635 4.06314 5.53493C4.77741 4.66351 5.77145 4.06636 6.87624 3.84501C7.98104 3.62367 9.12839 3.79179 10.1232 4.32079C11.1181 4.84979 11.899 5.70702 12.3333 6.74673L12.3332 6.74673C12.7675 5.70702 13.5484 4.84979 14.5433 4.32079C15.5381 3.79179 16.6855 3.62367 17.7903 3.84501C18.8951 4.06636 19.8891 4.66351 20.6034 5.53493C21.3176 6.40635 21.7081 7.49826 21.7083 8.62501C21.7083 15 12.3333 20.25 12.3333 20.25Z" stroke="white" stroke-width="2" stroke-linecap="round" stroke-linejoin="round"/>
</g>
</g>
</svg>
