<svg width="21" height="20" viewBox="0 0 21 20" fill="none" xmlns="http://www.w3.org/2000/svg">
<g id="ClockCounterClockwise">
<g id="ClockCounterClockwise_2">
<path id="Vector" d="M10.5 6.25V10" stroke="white" stroke-width="2" stroke-linecap="round" stroke-linejoin="round"/>
<path id="Vector_2" d="M13.7476 11.875L10.5 10" stroke="white" stroke-width="2" stroke-linecap="round" stroke-linejoin="round"/>
<path id="Vector_3" d="M6.11194 7.79004H2.98694V4.66504" stroke="white" stroke-width="2" stroke-linecap="round" stroke-linejoin="round"/>
<path id="Vector_4" d="M5.63859 14.8614C6.60007 15.8229 7.82508 16.4776 9.1587 16.7429C10.4923 17.0082 11.8747 16.872 13.1309 16.3517C14.3871 15.8313 15.4609 14.9501 16.2163 13.8196C16.9717 12.689 17.3749 11.3598 17.3749 10C17.3749 8.64026 16.9717 7.31105 16.2163 6.18046C15.4609 5.04987 14.3871 4.16868 13.1309 3.64833C11.8747 3.12798 10.4923 2.99183 9.1587 3.2571C7.82508 3.52238 6.60007 4.17716 5.63859 5.13864L2.98694 7.79029" stroke="white" stroke-width="2" stroke-linecap="round" stroke-linejoin="round"/>
</g>
</g>
</svg>
