<svg width="41" height="40" viewBox="0 0 41 40" fill="none" xmlns="http://www.w3.org/2000/svg">
<g id="Image">
<g id="Image_2">
<path id="Vector" d="M0.6875 39.9375V0.0625H40.5625V39.9375H0.6875Z" stroke="white" stroke-width="0.125"/>
<path id="Vector_2" d="M34.375 7.5H6.875C6.18464 7.5 5.625 8.05964 5.625 8.75V31.25C5.625 31.9404 6.18464 32.5 6.875 32.5H34.375C35.0654 32.5 35.625 31.9404 35.625 31.25V8.75C35.625 8.05964 35.0654 7.5 34.375 7.5Z" stroke="white" stroke-width="2" stroke-linecap="round" stroke-linejoin="round"/>
<g id="Vector_3">
<path d="M5.625 31.25L13.4911 20.3295C13.6071 20.225 13.7449 20.1422 13.8966 20.0856C14.0483 20.0291 14.2108 20 14.3749 20C14.5391 20 14.7016 20.0291 14.8533 20.0856C15.005 20.1422 15.1428 20.225 15.2588 20.3295L22.2411 26.6135C22.3571 26.718 22.4949 26.8008 22.6466 26.8574C22.7983 26.9139 22.9608 26.943 23.1249 26.943C23.2891 26.943 23.4516 26.9139 23.6033 26.8574C23.755 26.8008 23.8928 26.718 24.0088 26.6135L27.2411 23.7045C27.3571 23.6 27.4949 23.5172 27.6466 23.4606C27.7983 23.4041 27.9608 23.375 28.1249 23.375C28.2891 23.375 28.4516 23.4041 28.6033 23.4606C28.755 23.5172 28.8928 23.6 29.0088 23.7045L35.625 31.25" fill="white"/>
<path d="M5.625 31.25L13.4911 20.3295C13.6071 20.225 13.7449 20.1422 13.8966 20.0856C14.0483 20.0291 14.2108 20 14.3749 20C14.5391 20 14.7016 20.0291 14.8533 20.0856C15.005 20.1422 15.1428 20.225 15.2588 20.3295L22.2411 26.6135C22.3571 26.718 22.4949 26.8008 22.6466 26.8574C22.7983 26.9139 22.9608 26.943 23.1249 26.943C23.2891 26.943 23.4516 26.9139 23.6033 26.8574C23.755 26.8008 23.8928 26.718 24.0088 26.6135L27.2411 23.7045C27.3571 23.6 27.4949 23.5172 27.6466 23.4606C27.7983 23.4041 27.9608 23.375 28.1249 23.375C28.2891 23.375 28.4516 23.4041 28.6033 23.4606C28.755 23.5172 28.8928 23.6 29.0088 23.7045L35.625 31.25H5.625Z" stroke="white" stroke-width="2" stroke-linecap="round" stroke-linejoin="round"/>
</g>
<path id="Vector_4" d="M26.8125 15.625C26.8125 16.626 26.001 17.4375 25 17.4375C23.999 17.4375 23.1875 16.626 23.1875 15.625C23.1875 14.624 23.999 13.8125 25 13.8125C26.001 13.8125 26.8125 14.624 26.8125 15.625Z" fill="white" stroke="white" stroke-width="0.125"/>
</g>
</g>
</svg>
