<svg width="25" height="24" viewBox="0 0 25 24" fill="none" xmlns="http://www.w3.org/2000/svg">
<g id="ArrowsCounterClockwise">
<g id="ArrowsCounterClockwise_2">
<path id="Vector" d="M7.98438 9.34863H3.48438V4.84863" stroke="white" stroke-width="2" stroke-linecap="round" stroke-linejoin="round"/>
<path id="Vector_2" d="M18.3336 6.16637C17.5675 5.40029 16.6581 4.7926 15.6571 4.37799C14.6562 3.96339 13.5834 3.75 12.5 3.75C11.4166 3.75 10.3438 3.96339 9.34285 4.37799C8.34191 4.7926 7.43244 5.40029 6.66635 6.16637L3.48438 9.34835" stroke="white" stroke-width="2" stroke-linecap="round" stroke-linejoin="round"/>
<path id="Vector_3" d="M17.0156 14.6514H21.5156V19.1514" stroke="white" stroke-width="2" stroke-linecap="round" stroke-linejoin="round"/>
<path id="Vector_4" d="M6.66638 17.8333C7.43247 18.5994 8.34194 19.2071 9.34287 19.6217C10.3438 20.0363 11.4166 20.2497 12.5 20.2497C13.5834 20.2497 14.6562 20.0363 15.6572 19.6217C16.6581 19.2071 17.5676 18.5994 18.3336 17.8333L21.5156 14.6514" stroke="white" stroke-width="2" stroke-linecap="round" stroke-linejoin="round"/>
</g>
</g>
</svg>
