<svg width="24" height="24" viewBox="0 0 24 24" fill="none" xmlns="http://www.w3.org/2000/svg">
<g id="RocketLaunch">
<g id="RocketLaunch_2">
<path id="Vector" d="M8.81801 17.3034C7.75735 20.4854 3.51471 20.4854 3.51471 20.4854C3.51471 20.4854 3.51471 16.2428 6.69669 15.1821" stroke="white" stroke-width="2" stroke-linecap="round" stroke-linejoin="round"/>
<path id="Vector_2" d="M18.364 9.87888L12 16.2428L7.75739 12.0002L14.1213 5.63624C16.5311 3.22648 18.9409 3.24998 19.9686 3.40332C20.1268 3.4269 20.2733 3.5007 20.3864 3.61382C20.4995 3.72695 20.5733 3.87342 20.5969 4.03165C20.7502 5.05935 20.7738 7.46912 18.364 9.87888Z" stroke="white" stroke-width="2" stroke-linecap="round" stroke-linejoin="round"/>
<path id="Vector_3" d="M17.3033 10.9395V16.9928C17.3033 17.0912 17.2839 17.1888 17.2462 17.2798C17.2085 17.3708 17.1533 17.4534 17.0836 17.5231L14.0516 20.5551C13.9556 20.6511 13.8354 20.7193 13.7037 20.7523C13.572 20.7853 13.4338 20.782 13.3039 20.7426C13.174 20.7033 13.0572 20.6294 12.9659 20.5289C12.8747 20.4284 12.8124 20.305 12.7858 20.1719L12 16.2428" stroke="white" stroke-width="2" stroke-linecap="round" stroke-linejoin="round"/>
<path id="Vector_4" d="M13.0607 6.69678H7.00738C6.90889 6.69678 6.81136 6.71618 6.72037 6.75387C6.62938 6.79156 6.5467 6.8468 6.47705 6.91645L3.44501 9.94849C3.34902 10.0445 3.28088 10.1647 3.24787 10.2964C3.21485 10.4281 3.21818 10.5662 3.25752 10.6962C3.29686 10.8261 3.37072 10.9429 3.47124 11.0341C3.57175 11.1254 3.69514 11.1876 3.82826 11.2143L7.75738 12.0001" stroke="white" stroke-width="2" stroke-linecap="round" stroke-linejoin="round"/>
</g>
</g>
</svg>
