<svg width="41" height="40" viewBox="0 0 41 40" fill="none" xmlns="http://www.w3.org/2000/svg">
<g id="Storefront">
<g id="Storefront_2">
<path id="Vector" d="M8.375 21.8105V32.4999C8.375 32.8314 8.5067 33.1494 8.74112 33.3838C8.97554 33.6182 9.29348 33.7499 9.625 33.7499H32.125C32.4565 33.7499 32.7745 33.6182 33.0089 33.3838C33.2433 33.1494 33.375 32.8314 33.375 32.4999V21.8108" stroke="white" stroke-width="2" stroke-linecap="round" stroke-linejoin="round"/>
<path id="Vector_2" d="M9.31788 6.25H32.4321C32.7038 6.25 32.968 6.33849 33.1849 6.50206C33.4017 6.66564 33.5594 6.89541 33.634 7.1566L35.875 15H5.875L8.11597 7.1566C8.1906 6.89541 8.34827 6.66564 8.56513 6.50206C8.78199 6.33849 9.04624 6.25 9.31788 6.25Z" fill="white" stroke="white" stroke-width="2" stroke-linecap="round" stroke-linejoin="round"/>
<path id="Vector_3" d="M15.875 15V17.5C15.875 18.8261 15.3482 20.0979 14.4105 21.0355C13.4729 21.9732 12.2011 22.5 10.875 22.5C9.54892 22.5 8.27715 21.9732 7.33947 21.0355C6.40178 20.0979 5.875 18.8261 5.875 17.5V15" stroke="white" stroke-width="2" stroke-linecap="round" stroke-linejoin="round"/>
<path id="Vector_4" d="M25.875 15V17.5C25.875 18.8261 25.3482 20.0979 24.4105 21.0355C23.4729 21.9732 22.2011 22.5 20.875 22.5C19.5489 22.5 18.2771 21.9732 17.3395 21.0355C16.4018 20.0979 15.875 18.8261 15.875 17.5V15" stroke="white" stroke-width="2" stroke-linecap="round" stroke-linejoin="round"/>
<path id="Vector_5" d="M35.875 15V17.5C35.875 18.8261 35.3482 20.0979 34.4105 21.0355C33.4729 21.9732 32.2011 22.5 30.875 22.5C29.5489 22.5 28.2771 21.9732 27.3395 21.0355C26.4018 20.0979 25.875 18.8261 25.875 17.5V15" stroke="white" stroke-width="2" stroke-linecap="round" stroke-linejoin="round"/>
</g>
</g>
</svg>
